<?xml version="1.0" standalone="no"?><!DOCTYPE svg PUBLIC "-//W3C//DTD SVG 1.1//EN" "http://www.w3.org/Graphics/SVG/1.1/DTD/svg11.dtd"><svg t="1567045545016" class="icon" viewBox="0 0 1024 1024" version="1.1" xmlns="http://www.w3.org/2000/svg" p-id="1767" xmlns:xlink="http://www.w3.org/1999/xlink" width="200" height="200"><defs><style type="text/css"></style></defs><path d="M243.376233 426.458354h212.879211v-74.192755h109.989259v74.192755h212.879211c8.69915 0 16.398399-4.599551 20.497998-12.298799 4.0996-7.699248 3.699639-16.598379-1.199883-23.897667l-81.392051-121.588126c-4.29958-6.499365-11.498877-10.298994-19.298116-10.298994H324.668294c-7.799238 0-14.998535 3.899619-19.298115 10.298994L223.978127 390.261888c-4.899522 7.199297-5.299482 16.198418-1.199883 23.897667s11.798848 12.298799 20.597989 12.298799zM779.123914 465.254565H566.244703v73.992774h-109.989259v-73.992774H243.376233c-8.49917 0-16.698369-1.699834-24.197637-4.899522v290.171663c0 8.39918 6.899326 15.298506 15.298506 15.298506h555.545747c8.39918 0 15.298506-6.799336 15.298506-15.198515l-2.499756-290.071673c-7.399277 3.099697-15.398496 4.699541-23.697685 4.699541z" fill="#11AAED" p-id="1768"></path><path d="M920.910067 0.19998H103.589884C46.59545 0.19998 0.299971 46.495459 0.299971 103.489894v817.220193c0 57.094424 46.295479 103.289913 103.289913 103.289913H920.910067c57.094424 0 103.289913-46.295479 103.289913-103.289913V103.489894C1024.19998 46.495459 977.904502 0.19998 920.910067 0.19998zM790.022849 804.621424H234.477102c-29.79709 0-54.094717-24.297627-54.094717-54.094718V406.760277h0.999902c-0.799922-13.198711 2.699736-26.597403 10.398984-37.996289l81.392052-121.588126c11.498877-17.19832 30.796992-27.497315 51.494971-27.497315h373.063568c20.697979 0 39.996094 10.298994 51.494971 27.497315l81.392052 121.588126c7.599258 11.398887 11.098916 24.597598 10.398984 37.796309l2.999707 344.0664c0.09999 29.6971-24.197637 53.994727-53.994727 53.994727z" fill="#11AAED" p-id="1769"></path></svg>